<svg class="icon" aria-label="최저가도전" width="61" height="20" viewBox="0 0 61 20" fill="none" preserveAspectRatio="xMidYMid meet"><rect width="61" height="20" rx="4" fill="#FF7777"></rect><path d="M5.946 8.104H7.992C7.816 9.028 6.804 9.798 5.627 10.062L6.265 11.052C7.266 10.799 8.322 10.018 8.696 9.193C9.103 9.897 10.159 10.612 10.984 10.788C11.182 10.447 11.38 10.095 11.578 9.765C10.621 9.644 9.565 8.94 9.356 8.104H11.292V7.092H5.946V8.104ZM13.514 5.068H12.216V14.869H13.514V5.068ZM11.71 11.8C11.006 11.888 10.192 11.965 9.312 11.998V10.447H8.014V12.053C7.156 12.075 6.254 12.075 5.352 12.075L5.539 13.12C7.376 13.12 10.027 13.021 11.809 12.779L11.71 11.8ZM7.2 6.553H10.126V5.541H7.2V6.553ZM20.8756 11.888C19.4016 11.085 18.4556 9.688 18.4556 7.62V7.125H20.3586V6.069H15.1446V7.125H17.1136V7.631C17.1136 9.688 16.2666 11.184 14.6276 12.086L15.4306 13.032C16.5746 12.482 17.5536 11.162 17.7956 10.172C18.0816 11.118 19.2586 12.372 20.1496 12.834L20.8756 11.888ZM22.9546 14.869V5.068H21.6676V8.445H20.0176V9.534H21.6676V14.869H22.9546ZM33.4402 9.897V8.83H32.0212V5.068H30.7452V14.869H32.0212V9.897H33.4402ZM29.4472 6.069H24.8712V7.136H28.0502C27.8742 9.094 26.4112 11.151 24.2772 12.13L25.0582 13.098C28.0612 11.47 29.3592 9.028 29.4472 6.069ZM44.5494 10.359V9.336H39.2034V6.806H44.4944V5.783H37.9164V10.359H40.5344V12.625H36.7724V13.637H45.6274V12.625H41.8214V10.359H44.5494ZM46.631 6.905H48.6V6.938C48.6 8.423 47.654 9.611 46.235 10.128L46.994 11.14C47.94 10.81 48.974 9.831 49.271 8.874C49.689 9.776 50.646 10.59 51.394 10.865L52.098 9.853C50.976 9.49 49.942 8.401 49.92 6.905H51.801V5.849H46.631V6.905ZM54.397 12.174V5.068H53.11V7.675H51.636V8.709H53.11V12.174H54.397ZM54.606 14.605V13.593H49.139V11.514H47.841V14.605H54.606Z" fill="white"></path></svg>